# xmcd CD database file
#
# Track frame offsets:
#	150
#	42597
#	86771
#	112225
#	164404
#
# Disc length: 2759 seconds
#
# Revision: 5
# Processed by: cddbd v1.5.2PL0 Copyright (c) Steve Scherf et al.
# Submitted via: CDex 1.70beta3
#
DISCID=430ac505
DTITLE=Miles Davis - Kind Of Blue
DYEAR=1959
DGENRE=Jazz
TTITLE0=So What
TTITLE1=Freddie Freeloader
TTITLE2=Blue In Green
TTITLE3=All Blues
TTITLE4=Framenco Sketches
EXTD=Miles Davis, trumpet\nCannonball Adderley, alto sax\nJohn Coltrane, tenor sax\nWynton Kelly, piano\nBill Evans, piano\nPaul Chambers, bass\nJimmy Cobb, drums YEAR: 1959
EXTT0=
EXTT1=
EXTT2=
EXTT3=
EXTT4=
PLAYORDER=
